<svg width="14" height="14" viewBox="0 0 14 14" fill="none" xmlns="http://www.w3.org/2000/svg">
<path fill-rule="evenodd" clip-rule="evenodd" d="M7.44196 0.724746C7.68604 0.968824 7.68604 1.36455 7.44196 1.60863L2.67557 6.37501H12.8334C13.1785 6.37501 13.4584 6.65483 13.4584 7.00001C13.4584 7.34519 13.1785 7.62501 12.8334 7.62501H2.67557L7.44196 12.3914C7.68604 12.6355 7.68604 13.0312 7.44196 13.2753C7.19788 13.5194 6.80216 13.5194 6.55808 13.2753L0.724745 7.44195C0.607535 7.32474 0.541687 7.16577 0.541687 7.00001C0.541687 6.83425 0.607535 6.67527 0.724746 6.55806L6.55808 0.724745C6.80216 0.480667 7.19789 0.480668 7.44196 0.724746Z" fill="white"/>
</svg>
