<svg width="265" height="541" viewBox="0 0 265 541" fill="none" xmlns="http://www.w3.org/2000/svg">
<g opacity="0.06">
<path d="M51.9405 0C-65.7716 0 -161 97.2544 -161 217.058C-161 287.756 -127.81 351.156 -76.0022 390.453C-48.1653 412.045 -14.9752 426.28 20.7132 431.723C22.2002 432.202 24.1036 432.68 25.5906 432.68V409.114C25.5906 389.975 15.36 372.749 -0.283447 363.418C-2.72215 362.461 -5.16084 360.966 -7.59955 360.009C-60.8347 336.921 -97.4747 282.432 -97.4747 217.118C-97.4747 129.673 -32.0461 61.427 52 61.427C136.046 61.427 200.999 129.673 200.999 217.118C200.999 282.432 164.359 336.981 110.648 360.009C108.209 360.966 105.77 362.461 103.332 363.418C87.6883 372.749 77.4577 389.915 77.4577 409.114V432.68C78.9447 432.68 80.8481 432.202 82.3351 431.723C118.499 426.34 151.214 412.105 179.051 390.932C231.334 351.157 265 288.294 265 217.058C263.929 97.2544 168.701 0 51.9405 0Z" fill="#0D2533"/>
<path d="M13.6945 503.677C13.6945 481.846 29.9921 465.457 52.1784 465.457C74.3647 465.457 90.1865 482.324 90.1865 503.677C90.1865 525.03 73.413 541 52.1784 541C30.9438 541 13.6945 524.612 13.6945 503.677Z" fill="#0D2533"/>
</g>
</svg>
