<svg width="348" height="68" viewBox="0 0 348 68" fill="none" xmlns="http://www.w3.org/2000/svg">
<g clip-path="url(#clip0_34_13765)">
<path d="M24.6201 1.3009C11.0077 1.3009 0 12.0705 0 25.349C0 38.6275 11.0077 49.3878 24.6201 49.3878C38.2325 49.3878 49.2402 38.6182 49.2402 25.349C49.1244 12.0798 38.1168 1.3102 24.6201 1.3102V1.3009ZM24.6201 42.586C14.9052 42.586 7.34165 35.0221 7.34165 25.3397C7.34165 15.6573 14.9052 8.10276 24.6201 8.10276C34.335 8.10276 41.8407 15.6666 41.8407 25.3397C41.8407 35.0129 34.2771 42.586 24.6201 42.586Z" fill="#0D2533"/>
<path d="M141.17 12.944H134.002V48.8396H141.17V12.944Z" fill="#0D2533"/>
<path d="M207.245 27.2539V48.8488H200.067C200.067 48.8488 200.048 27.9694 200.048 27.8114C200.048 26.1574 199.537 24.6242 198.649 23.3419C198.591 23.2397 198.514 23.1374 198.437 23.0352C196.903 20.9909 194.404 19.6622 191.587 19.6622C188.124 19.6622 185.152 21.6507 183.85 24.5127C183.792 24.6335 183.744 24.7636 183.686 24.8844C183.329 25.6649 182.991 28.1273 182.962 28.722V48.8488H175.785V27.8114C175.785 26.0273 175.187 24.3733 174.174 23.0352C172.64 20.9909 170.141 19.6622 167.324 19.6622C163.716 19.6622 160.648 21.8272 159.423 24.8844C158.969 26.018 158.68 27.9972 158.68 29.3725V48.8488H151.512V27.2539C151.512 20.5821 154.628 16.2705 158.68 14.0869C160.841 12.9161 163.262 12.3492 165.626 12.3492H168.839C173.209 12.3492 176.904 14.1148 179.374 17.302C181.843 14.1148 185.538 12.3492 189.909 12.3492H193.121C195.485 12.3492 197.906 12.9161 200.067 14.0776C204.119 16.2705 207.245 20.5728 207.245 27.2539Z" fill="#0D2533"/>
<path d="M132.931 4.57174C132.931 1.96065 134.967 0 137.736 0C140.504 0 142.482 2.0164 142.482 4.57174C142.482 7.12708 140.389 9.03198 137.736 9.03198C135.083 9.03198 132.931 7.07133 132.931 4.57174Z" fill="#0D2533"/>
<path d="M246.153 16.2798C242.863 13.7152 238.666 12.182 234.103 12.182C230.341 12.182 226.839 13.2227 223.877 15.0254C223.626 15.1834 223.375 15.3413 223.124 15.5086C222.874 15.6759 222.632 15.8431 222.391 16.029C222.15 16.2055 221.918 16.3821 221.687 16.5772C221.455 16.7537 221.243 16.9489 221.021 17.1347L220.944 17.2091C220.742 17.3856 220.549 17.5808 220.356 17.7666C220.143 17.971 219.941 18.194 219.738 18.4078C219.536 18.6308 219.343 18.8538 219.15 19.0768C218.957 19.3091 218.773 19.5414 218.59 19.7737C218.417 20.0153 218.233 20.2569 218.069 20.4985C217.876 20.768 217.703 21.0374 217.539 21.3162C217.404 21.5485 217.259 21.7901 217.133 22.0224C216.989 22.2919 216.844 22.5521 216.719 22.8215C216.584 23.091 216.458 23.3605 216.342 23.6392C216.227 23.918 216.111 24.1968 216.005 24.4848C215.773 25.0795 215.59 25.6835 215.435 26.3061C215.31 26.8079 215.204 27.3096 215.117 27.8207C215.117 27.8393 215.117 27.8579 215.117 27.8765C215.069 28.1831 215.03 28.4897 214.992 28.7964C214.924 29.419 214.895 30.0508 214.895 30.692C214.895 40.9134 223.501 49.202 234.113 49.202C235.579 49.202 236.997 49.044 238.367 48.7374C241.416 47.9103 244.088 46.2563 246.162 43.8961V48.8489H253.33V30.692C253.33 24.8658 250.533 19.6715 246.162 16.2798H246.153ZM234.065 42.9205C227.176 42.9205 221.754 37.6425 221.754 30.8407C221.754 24.0388 227.176 18.7144 234.065 18.7144C240.953 18.7144 246.49 24.2618 246.49 30.8407C246.49 37.4195 240.895 42.9205 234.065 42.9205Z" fill="#0D2533"/>
<path d="M292.007 19.1418L271.332 42.3722H291.659V48.9511H262.245V42.2607L282.745 19.4206H262.302V12.944H292.007V19.1418Z" fill="#0D2533"/>
<path d="M336.327 28.2295C334.976 19.1976 326.901 12.3492 317.64 12.3492C307.076 12.3492 298.499 20.6193 298.499 30.8406C298.499 41.062 307.086 49.3878 317.64 49.3878C324.981 49.3878 331.928 45.4758 334.918 39.5938L335.314 38.8319L328.763 37.3637L328.483 37.7447C326.11 41.0062 321.933 43.0226 317.64 43.0226C311.485 43.0226 306.68 39.1571 305.725 33.5632H336.278L336.394 32.9685C336.674 31.6676 336.616 29.9765 336.336 28.2388L336.327 28.2295ZM305.773 27.7928C306.844 22.4591 311.649 18.6586 317.524 18.6586C323.399 18.6586 328.03 22.4684 329.159 27.7928H305.783H305.773Z" fill="#0D2533"/>
<path d="M338.459 44.9276C338.459 42.3165 340.494 40.3558 343.263 40.3558C346.032 40.3558 348.01 42.3722 348.01 44.9276C348.01 47.4829 345.916 49.3878 343.263 49.3878C340.61 49.3878 338.459 47.4272 338.459 44.9276Z" fill="#F4CB1E"/>
<path d="M125.763 12.9161V19.8202H111.022V48.8117H103.854V23.2211C103.854 17.525 108.649 12.9161 114.553 12.9161H125.763Z" fill="#0D2533"/>
<path d="M162.877 58.7729H164.025V65.4354H168.356V66.3832H162.877V58.7729Z" fill="#0D2533"/>
<path d="M170.459 62.5826C170.459 60.3525 172.273 58.6892 174.733 58.6892C177.193 58.6892 178.978 60.3432 178.978 62.5826C178.978 64.822 177.174 66.4667 174.733 66.4667C172.292 66.4667 170.459 64.8034 170.459 62.5826ZM177.82 62.5826C177.82 60.8914 176.499 59.6556 174.724 59.6556C172.948 59.6556 171.598 60.8914 171.598 62.5826C171.598 64.2738 172.919 65.5004 174.724 65.5004C176.528 65.5004 177.82 64.2645 177.82 62.5826Z" fill="#0D2533"/>
<path d="M181.139 65.5189L181.564 64.6734C182.152 65.1844 183.175 65.5468 184.197 65.5468C185.586 65.5468 186.185 65.0358 186.185 64.376C186.185 62.5176 181.332 63.6884 181.332 60.8636C181.332 59.6928 182.297 58.6892 184.39 58.6892C185.326 58.6892 186.3 58.9308 186.966 59.3675L186.59 60.2317C185.895 59.8136 185.104 59.6184 184.39 59.6184C183.03 59.6184 182.441 60.1574 182.441 60.8264C182.441 62.6848 187.294 61.5233 187.294 64.3203C187.294 65.4818 186.31 66.4853 184.188 66.4853C182.962 66.4853 181.766 66.0951 181.129 65.5282L181.139 65.5189Z" fill="#0D2533"/>
<path d="M195.938 65.4447V66.3925H190.13V58.7822H195.784V59.73H191.278V62.0717H195.292V62.9916H191.278V65.454H195.948L195.938 65.4447Z" fill="#0D2533"/>
<path d="M214.471 58.7729L211.798 66.3832H210.592L208.412 60.3062L206.232 66.3832H205.007L202.334 58.7729H203.511L205.672 64.9615L207.92 58.7729H208.972L211.181 64.9894L213.39 58.7729H214.471Z" fill="#0D2533"/>
<path d="M222.825 65.4447V66.3925H217.018V58.7822H222.671V59.73H218.166V62.0717H222.179V62.9916H218.166V65.454H222.835L222.825 65.4447Z" fill="#0D2533"/>
<path d="M225.826 58.7729H226.974V66.3832H225.826V58.7729Z" fill="#0D2533"/>
<path d="M236.071 62.5363H237.171V65.5098C236.37 66.1509 235.261 66.4761 234.142 66.4761C231.682 66.4761 229.868 64.8314 229.868 62.592C229.868 60.3526 231.682 58.6986 234.161 58.6986C235.425 58.6986 236.505 59.0982 237.239 59.8694L236.534 60.5478C235.869 59.9345 235.116 59.665 234.209 59.665C232.357 59.665 231.016 60.8916 231.016 62.592C231.016 64.2925 232.347 65.5098 234.2 65.5098C234.875 65.5098 235.502 65.3704 236.081 65.0173V62.5363H236.071Z" fill="#0D2533"/>
<path d="M247.388 58.7729V66.3832H246.24V62.9916H241.647V66.3832H240.499V58.7729H241.647V62.0438H246.24V58.7729H247.388Z" fill="#0D2533"/>
<path d="M252.53 59.7207H249.79V58.7729H256.408V59.7207H253.668V66.3832H252.53V59.7207Z" fill="#0D2533"/>
<path d="M259.292 65.7048C259.292 65.9185 259.244 66.0858 259.099 66.4853L258.559 67.9999H257.836L258.26 66.3831C257.971 66.2902 257.778 66.03 257.778 65.7048C257.778 65.2681 258.115 64.9707 258.54 64.9707C258.964 64.9707 259.283 65.2866 259.283 65.7048H259.292Z" fill="#0D2533"/>
<path d="M267.551 59.7207V62.3783H271.564V63.3168H267.551V66.3925H266.403V58.7822H272.056V59.73H267.551V59.7207Z" fill="#0D2533"/>
<path d="M280.632 65.4447V66.3925H274.825V58.7822H280.478V59.73H275.973V62.0717H279.986V62.9916H275.973V65.454H280.642L280.632 65.4447Z" fill="#0D2533"/>
<path d="M289.44 65.4447V66.3925H283.633V58.7822H289.286V59.73H284.781V62.0717H288.794V62.9916H284.781V65.454H289.45L289.44 65.4447Z" fill="#0D2533"/>
<path d="M292.45 58.7729H293.598V65.4354H297.93V66.3832H292.45V58.7729Z" fill="#0D2533"/>
<path d="M310.163 62.5363H311.263V65.5098C310.462 66.1509 309.353 66.4761 308.234 66.4761C305.773 66.4761 303.96 64.8314 303.96 62.592C303.96 60.3526 305.773 58.6986 308.253 58.6986C309.517 58.6986 310.597 59.0982 311.33 59.8694L310.626 60.5478C309.96 59.9345 309.208 59.665 308.301 59.665C306.449 59.665 305.108 60.8916 305.108 62.592C305.108 64.2925 306.439 65.5098 308.291 65.5098C308.967 65.5098 309.594 65.3704 310.173 65.0173V62.5363H310.163Z" fill="#0D2533"/>
<path d="M319.945 66.3925L318.219 64.0509C318.055 64.0602 317.881 64.0695 317.717 64.0695H315.739V66.3832H314.591V58.7729H317.717C319.791 58.7729 321.055 59.7765 321.055 61.4305C321.055 62.6013 320.418 63.4469 319.299 63.8279L321.2 66.3832H319.955L319.945 66.3925ZM319.916 61.4398C319.916 60.3526 319.154 59.73 317.688 59.73H315.739V63.1588H317.688C319.154 63.1588 319.916 62.527 319.916 61.4398Z" fill="#0D2533"/>
<path d="M329.863 65.4447V66.3925H324.055V58.7822H329.709V59.73H325.203V62.0717H329.217V62.9916H325.203V65.454H329.873L329.863 65.4447Z" fill="#0D2533"/>
<path d="M337.967 64.4876H333.712L332.834 66.3925H331.657L335.285 58.7822H336.413L340.051 66.3925H338.845L337.967 64.4876ZM337.562 63.6141L335.835 59.888L334.108 63.6141H337.562Z" fill="#0D2533"/>
<path d="M343.572 59.7207H340.832V58.7729H347.45V59.7207H344.71V66.3832H343.572V59.7207Z" fill="#0D2533"/>
<path d="M96.0299 28.9729C95.0459 19.6343 86.8553 12.3492 76.8992 12.3492C76.7256 12.3492 76.5616 12.3492 76.3975 12.3678C72.0273 12.4607 68.0236 13.9754 64.8496 16.4471C60.4697 19.8294 57.672 25.033 57.672 30.8685V66.4482H64.8496V43.8775C67.8982 47.3621 72.4711 49.3692 77.3816 49.3692C77.6035 49.3692 77.8157 49.3692 78.0376 49.3506C85.167 48.9603 91.2545 44.816 94.2162 38.9341C94.3127 38.739 94.4092 38.5438 94.496 38.3487C94.689 37.9305 94.8626 37.4938 95.0266 37.0571C95.1038 36.8341 95.181 36.6111 95.2582 36.3788C95.2678 36.3602 95.2678 36.3416 95.2775 36.3323C95.4125 35.9049 95.5283 35.4774 95.6344 35.0407C95.7309 34.6597 95.8081 34.2787 95.8659 33.8885C95.9045 33.684 95.9431 33.4703 95.9624 33.2566C95.9914 33.08 96.0107 32.8942 96.0299 32.7176C96.0975 32.1044 96.1264 31.4911 96.1264 30.8685C96.1264 30.2459 96.0975 29.5955 96.0299 28.9729ZM76.9281 43.0041C70.0978 43.0041 64.512 37.5124 64.512 30.822C64.512 24.1317 70.0978 18.7515 76.9281 18.7515C83.7585 18.7515 89.2382 24.0759 89.2382 30.822C89.2382 37.5682 83.7103 43.0041 76.9281 43.0041Z" fill="#0D2533"/>
<path d="M78.0376 49.3506C77.6613 49.3785 77.2851 49.3878 76.8992 49.3878C72.336 49.3878 68.149 47.8546 64.8496 45.29V43.8776C67.8982 47.3621 72.4711 49.3692 77.3816 49.3692C77.6035 49.3692 77.8157 49.3692 78.0376 49.3506Z" fill="#0D2533"/>
</g>
<defs>
<clipPath id="clip0_34_13765">
<rect width="348" height="68" fill="white"/>
</clipPath>
</defs>
</svg>
