<svg width="304" height="59" viewBox="0 0 304 59" fill="none" xmlns="http://www.w3.org/2000/svg">
<path d="M21.5072 1.12866C9.61588 1.12866 0 10.4729 0 21.9939C0 33.515 9.61588 42.8511 21.5072 42.8511C33.3985 42.8511 43.0144 33.5069 43.0144 21.9939C42.9133 10.4809 33.2974 1.13672 21.5072 1.13672V1.12866ZM21.5072 36.9495C13.0206 36.9495 6.4134 30.3868 6.4134 21.9859C6.4134 13.5849 13.0206 7.03028 21.5072 7.03028C29.9938 7.03028 36.5505 13.593 36.5505 21.9859C36.5505 30.3787 29.9432 36.9495 21.5072 36.9495Z" fill="#FCFCFE"/>
<path d="M123.321 11.2307H117.059V42.3754H123.321V11.2307Z" fill="#FCFCFE"/>
<path d="M181.041 23.6468V42.3836H174.771C174.771 42.3836 174.754 24.2676 174.754 24.1305C174.754 22.6954 174.308 21.3652 173.532 20.2526C173.482 20.1639 173.415 20.0752 173.347 19.9865C172.007 18.2128 169.824 17.0599 167.363 17.0599C164.338 17.0599 161.742 18.7852 160.605 21.2684C160.554 21.3732 160.512 21.4861 160.461 21.5909C160.149 22.2681 159.855 24.4046 159.829 24.9206V42.3836H153.559V24.1305C153.559 22.5826 153.037 21.1475 152.152 19.9865C150.812 18.2128 148.629 17.0599 146.168 17.0599C143.016 17.0599 140.336 18.9384 139.266 21.5909C138.87 22.5745 138.617 24.2918 138.617 25.485V42.3836H132.355V23.6468C132.355 17.8581 135.077 14.1171 138.617 12.2225C140.505 11.2066 142.62 10.7148 144.685 10.7148H147.491C151.309 10.7148 154.537 12.2467 156.694 15.0121C158.852 12.2467 162.079 10.7148 165.897 10.7148H168.703C170.768 10.7148 172.884 11.2066 174.771 12.2144C178.311 14.1171 181.041 17.85 181.041 23.6468Z" fill="#FCFCFE"/>
<path d="M116.124 3.96666C116.124 1.70115 117.902 0 120.321 0C122.739 0 124.467 1.74952 124.467 3.96666C124.467 6.18379 122.638 7.83657 120.321 7.83657C118.003 7.83657 116.124 6.13542 116.124 3.96666Z" fill="#FCFCFE"/>
<path d="M215.03 14.1251C212.156 11.8999 208.49 10.5696 204.504 10.5696C201.217 10.5696 198.158 11.4726 195.571 13.0366C195.352 13.1737 195.132 13.3108 194.913 13.4559C194.694 13.601 194.483 13.7461 194.273 13.9074C194.062 14.0606 193.86 14.2137 193.658 14.3831C193.455 14.5362 193.27 14.7055 193.076 14.8668L193.009 14.9313C192.832 15.0845 192.663 15.2538 192.495 15.415C192.309 15.5924 192.132 15.7859 191.955 15.9713C191.778 16.1648 191.61 16.3583 191.441 16.5518C191.273 16.7534 191.112 16.9549 190.952 17.1565C190.801 17.3661 190.64 17.5757 190.497 17.7853C190.329 18.0192 190.177 18.253 190.034 18.4948C189.916 18.6964 189.789 18.906 189.68 19.1076C189.553 19.3414 189.427 19.5671 189.317 19.8009C189.199 20.0347 189.09 20.2685 188.989 20.5104C188.888 20.7523 188.786 20.9942 188.694 21.2441C188.491 21.7601 188.331 22.2841 188.196 22.8243C188.087 23.2597 187.994 23.695 187.918 24.1385C187.918 24.1546 187.918 24.1707 187.918 24.1868C187.876 24.4529 187.843 24.7189 187.809 24.985C187.75 25.5252 187.725 26.0734 187.725 26.6297C187.725 35.4982 195.242 42.6898 204.512 42.6898C205.793 42.6898 207.032 42.5528 208.229 42.2867C210.892 41.5692 213.226 40.1341 215.038 38.0863V42.3835H221.3V26.6297C221.3 21.5746 218.856 17.0678 215.038 14.1251H215.03ZM204.47 37.2397C198.453 37.2397 193.717 32.6603 193.717 26.7587C193.717 20.8571 198.453 16.2374 204.47 16.2374C210.487 16.2374 215.325 21.0506 215.325 26.7587C215.325 32.4668 210.437 37.2397 204.47 37.2397Z" fill="#FCFCFE"/>
<path d="M255.086 16.6083L237.026 36.7641H254.783V42.4722H229.087V36.6673L246.996 16.8501H229.138V11.2307H255.086V16.6083Z" fill="#FCFCFE"/>
<path d="M293.803 24.4933C292.623 16.6568 285.569 10.7148 277.478 10.7148C268.25 10.7148 260.758 17.8903 260.758 26.7588C260.758 35.6274 268.259 42.8512 277.478 42.8512C283.892 42.8512 289.96 39.457 292.572 34.3535L292.918 33.6924L287.195 32.4186L286.951 32.7491C284.878 35.579 281.229 37.3285 277.478 37.3285C272.102 37.3285 267.905 33.9746 267.07 29.1211H293.76L293.862 28.6051C294.106 27.4764 294.055 26.009 293.811 24.5014L293.803 24.4933ZM267.112 24.1144C268.048 19.4866 272.245 16.1892 277.377 16.1892C282.51 16.1892 286.555 19.4947 287.541 24.1144H267.121H267.112Z" fill="#FCFCFE"/>
<path d="M295.665 38.9813C295.665 36.7158 297.443 35.0146 299.862 35.0146C302.281 35.0146 304.008 36.7642 304.008 38.9813C304.008 41.1984 302.18 42.8512 299.862 42.8512C297.545 42.8512 295.665 41.1501 295.665 38.9813Z" fill="#F4CB1E"/>
<path d="M109.862 11.2065V17.1968H96.9847V42.3513H90.723V20.1476C90.723 15.2054 94.9115 11.2065 100.069 11.2065H109.862Z" fill="#FCFCFE"/>
<path d="M142.283 50.9941H143.286V56.7748H147.07V57.5972H142.283V50.9941Z" fill="#FCFCFE"/>
<path d="M148.907 54.2997C148.907 52.3648 150.491 50.9216 152.641 50.9216C154.79 50.9216 156.349 52.3567 156.349 54.2997C156.349 56.2428 154.773 57.6698 152.641 57.6698C150.508 57.6698 148.907 56.2266 148.907 54.2997ZM155.337 54.2997C155.337 52.8324 154.183 51.7601 152.632 51.7601C151.081 51.7601 149.902 52.8324 149.902 54.2997C149.902 55.7671 151.056 56.8313 152.632 56.8313C154.208 56.8313 155.337 55.759 155.337 54.2997Z" fill="#FCFCFE"/>
<path d="M158.236 56.8474L158.607 56.1138C159.121 56.5572 160.015 56.8716 160.908 56.8716C162.122 56.8716 162.644 56.4282 162.644 55.8558C162.644 54.2433 158.405 55.2592 158.405 52.8082C158.405 51.7924 159.248 50.9216 161.077 50.9216C161.894 50.9216 162.745 51.1313 163.327 51.5102L162.998 52.26C162.391 51.8972 161.7 51.7279 161.077 51.7279C159.888 51.7279 159.374 52.1955 159.374 52.776C159.374 54.3884 163.613 53.3806 163.613 55.8074C163.613 56.8152 162.754 57.6859 160.9 57.6859C159.829 57.6859 158.784 57.3473 158.228 56.8555L158.236 56.8474Z" fill="#FCFCFE"/>
<path d="M171.164 56.7829V57.6052H166.091V51.0022H171.03V51.8246H167.094V53.8563H170.6V54.6544H167.094V56.7909H171.173L171.164 56.7829Z" fill="#FCFCFE"/>
<path d="M187.354 50.9941L185.019 57.5972H183.966L182.061 52.3244L180.157 57.5972H179.086L176.752 50.9941H177.78L179.668 56.3636L181.631 50.9941H182.55L184.48 56.3878L186.41 50.9941H187.354Z" fill="#FCFCFE"/>
<path d="M194.652 56.7829V57.6052H189.579V51.0022H194.517V51.8246H190.581V53.8563H194.087V54.6544H190.581V56.7909H194.66L194.652 56.7829Z" fill="#FCFCFE"/>
<path d="M197.273 50.9941H198.276V57.5972H197.273V50.9941Z" fill="#FCFCFE"/>
<path d="M206.223 54.2594H207.184V56.8394C206.484 57.3957 205.515 57.6778 204.538 57.6778C202.389 57.6778 200.804 56.2508 200.804 54.3078C200.804 52.3648 202.389 50.9297 204.554 50.9297C205.658 50.9297 206.602 51.2764 207.243 51.9455L206.628 52.5341C206.046 52.002 205.389 51.7682 204.597 51.7682C202.979 51.7682 201.807 52.8324 201.807 54.3078C201.807 55.7832 202.97 56.8394 204.588 56.8394C205.178 56.8394 205.726 56.7184 206.232 56.4121V54.2594H206.223Z" fill="#FCFCFE"/>
<path d="M216.109 50.9941V57.5972H215.106V54.6544H211.094V57.5972H210.091V50.9941H211.094V53.8321H215.106V50.9941H216.109Z" fill="#FCFCFE"/>
<path d="M220.601 51.8165H218.207V50.9941H223.988V51.8165H221.595V57.5972H220.601V51.8165Z" fill="#FCFCFE"/>
<path d="M226.508 57.0085C226.508 57.1939 226.466 57.3391 226.34 57.6857L225.868 58.9999H225.236L225.607 57.5971C225.354 57.5164 225.185 57.2907 225.185 57.0085C225.185 56.6296 225.48 56.3716 225.851 56.3716C226.222 56.3716 226.5 56.6457 226.5 57.0085H226.508Z" fill="#FCFCFE"/>
<path d="M233.722 51.8165V54.1223H237.228V54.9366H233.722V57.6052H232.719V51.0022H237.658V51.8246H233.722V51.8165Z" fill="#FCFCFE"/>
<path d="M245.15 56.7829V57.6052H240.077V51.0022H245.015V51.8246H241.08V53.8563H244.585V54.6544H241.08V56.7909H245.159L245.15 56.7829Z" fill="#FCFCFE"/>
<path d="M252.845 56.7829V57.6052H247.771V51.0022H252.71V51.8246H248.774V53.8563H252.28V54.6544H248.774V56.7909H252.853L252.845 56.7829Z" fill="#FCFCFE"/>
<path d="M255.474 50.9941H256.477V56.7748H260.261V57.5972H255.474V50.9941Z" fill="#FCFCFE"/>
<path d="M270.947 54.2594H271.908V56.8394C271.208 57.3957 270.239 57.6778 269.261 57.6778C267.112 57.6778 265.528 56.2508 265.528 54.3078C265.528 52.3648 267.112 50.9297 269.278 50.9297C270.382 50.9297 271.326 51.2764 271.967 51.9455L271.352 52.5341C270.77 52.002 270.113 51.7682 269.32 51.7682C267.702 51.7682 266.531 52.8324 266.531 54.3078C266.531 55.7832 267.694 56.8394 269.312 56.8394C269.902 56.8394 270.45 56.7184 270.955 56.4121V54.2594H270.947Z" fill="#FCFCFE"/>
<path d="M279.493 57.6052L277.984 55.5735C277.841 55.5816 277.689 55.5897 277.546 55.5897H275.818V57.5972H274.815V50.9941H277.546C279.358 50.9941 280.462 51.8649 280.462 53.3C280.462 54.3158 279.906 55.0495 278.928 55.38L280.588 57.5972H279.501L279.493 57.6052ZM279.467 53.308C279.467 52.3647 278.801 51.8246 277.52 51.8246H275.818V54.7996H277.52C278.801 54.7996 279.467 54.2513 279.467 53.308Z" fill="#FCFCFE"/>
<path d="M288.156 56.7829V57.6052H283.083V51.0022H288.021V51.8246H284.086V53.8563H287.591V54.6544H284.086V56.7909H288.165L288.156 56.7829Z" fill="#FCFCFE"/>
<path d="M295.235 55.9525H291.519L290.752 57.6052H289.724L292.892 51.0022H293.878L297.056 57.6052H296.002L295.235 55.9525ZM294.881 55.1946L293.373 51.9616L291.864 55.1946H294.881Z" fill="#FCFCFE"/>
<path d="M300.132 51.8165H297.738V50.9941H303.52V51.8165H301.126V57.5972H300.132V51.8165Z" fill="#FCFCFE"/>
<path d="M83.8882 25.1383C83.0286 17.0357 75.8736 10.7148 67.1763 10.7148C67.0246 10.7148 66.8813 10.7148 66.7381 10.731C62.9204 10.8116 59.4229 12.1257 56.6503 14.2703C52.8241 17.205 50.3801 21.7199 50.3801 26.783V57.6536H56.6503V38.0703C59.3134 41.0936 63.308 42.8351 67.5977 42.8351C67.7915 42.8351 67.9769 42.8351 68.1708 42.819C74.3988 42.4804 79.7166 38.8846 82.3038 33.7811C82.3881 33.6118 82.4724 33.4425 82.5482 33.2732C82.7168 32.9104 82.8685 32.5315 83.0118 32.1525C83.0792 31.959 83.1466 31.7655 83.214 31.564C83.2224 31.5479 83.2224 31.5317 83.2309 31.5237C83.3489 31.1528 83.45 30.7819 83.5427 30.403C83.627 30.0725 83.6944 29.7419 83.745 29.4033C83.7787 29.2259 83.8124 29.0405 83.8292 28.855C83.8545 28.7019 83.8714 28.5406 83.8882 28.3874C83.9472 27.8553 83.9725 27.3232 83.9725 26.783C83.9725 26.2429 83.9472 25.6785 83.8882 25.1383ZM67.2016 37.3124C61.2349 37.3124 56.3553 32.5476 56.3553 26.7427C56.3553 20.9379 61.2349 16.2698 67.2016 16.2698C73.1683 16.2698 77.9552 20.8895 77.9552 26.7427C77.9552 32.596 73.1262 37.3124 67.2016 37.3124Z" fill="#FCFCFE"/>
<path d="M68.1708 42.819C67.8421 42.8432 67.5134 42.8513 67.1763 42.8513C63.1901 42.8513 59.5325 41.521 56.6503 39.2958V38.0703C59.3134 41.0937 63.3081 42.8351 67.5977 42.8351C67.7915 42.8351 67.9769 42.8351 68.1708 42.819Z" fill="#FCFCFE"/>
</svg>
